# xmcd CD database file
#
# Track frame offsets:
#	150
#	20412
#	46632
#
# Disc length: 895 seconds
#
# Revision: 3
# Processed by: cddbd v1.4PL0 Copyright (c) Steve Scherf et al.
# Submitted via: CDex 1.40Beta5
#
DISCID=16037d03
DTITLE=任賢齊 - 愛像太平洋
DYEAR=1998
DGENRE=Country
TTITLE0=任逍遙
TTITLE1=心太軟
TTITLE2=很受傷
EXTD=ddd\n YEAR: 1998 ID3G:   2
EXTT0=
EXTT1=
EXTT2=
PLAYORDER=
